<svg width="80" height="80" viewBox="0 0 80 80" fill="none" xmlns="http://www.w3.org/2000/svg">
<path d="M40 2.5C26.2162 2.5 15 12.3613 15 24.4825C15 30.895 19.21 37.4975 23.2763 43.8775C26.78 49.3688 30.1263 54.61 31.1712 60H48.8275C49.875 54.6087 53.2175 49.3675 56.72 43.8775C60.7887 37.4975 65 30.895 65 24.4825C65 12.3613 53.7838 2.5 40 2.5ZM40 37.0925C42.415 39.6987 44.69 40.4738 45.73 40.7038C45.5737 41.3975 45.4325 42.075 45.2687 42.7425C44.9613 44.1075 44.6612 45.4375 44.37 46.715C43.5585 50.3056 42.7689 53.901 42.0013 57.5013H37.9975C37.2281 53.9014 36.4385 50.306 35.6287 46.715L34.7275 42.7425C34.5637 42.075 34.4225 41.3975 34.2688 40.7038C35.31 40.4738 37.585 39.6987 40 37.0925ZM39.3263 34.3637C39.0875 33.8475 39.0012 33.32 39.2463 32.9312C39.4513 32.6225 39.7225 32.4463 40.0012 32.4463C40.28 32.4463 40.5487 32.6225 40.7562 32.9312C41 33.32 40.915 33.8462 40.6763 34.3637C40.5 34.7287 40.2588 35.0762 40 35.4125C39.7386 35.088 39.5127 34.7364 39.3263 34.3637ZM54.6138 42.5312C51.385 47.5925 48.315 52.4038 46.86 57.5H42.8025C43.7021 53.9777 44.5825 50.4506 45.4437 46.9188C45.7512 45.6425 46.0763 44.3213 46.4075 42.9588C46.5925 42.2337 46.7562 41.4863 46.9375 40.7425C47.8825 40.6788 48.7862 40.3838 49.4912 39.7375C50.2137 39.0263 50.59 38.0963 50.4213 37.1038C50.345 36.6287 49.9888 36.0137 49.3013 35.8037C48.965 35.6904 48.6023 35.6821 48.2613 35.78C47.9773 35.8852 47.7214 36.0546 47.5138 36.275C46.8475 37.015 46.605 37.7537 46.3325 38.4862C46.205 38.855 46.1 39.2238 46 39.5875C46 39.5875 44.9375 39.6688 42.665 38.14C41.4025 37.2912 41.0387 36.6775 40.6725 36.2713C41.0675 35.8325 41.4462 35.3512 41.74 34.7675C41.8962 34.4412 42.0275 34.0875 42.0725 33.69C42.1175 33.2925 42.0437 32.8425 41.8162 32.455C41.5734 32.0254 41.1923 31.6905 40.735 31.505C40.5075 31.4237 40.2537 31.385 40 31.385C39.7463 31.385 39.49 31.4225 39.265 31.505C38.8072 31.6908 38.4254 32.0255 38.1812 32.455C37.9538 32.8438 37.8813 33.2925 37.925 33.69C37.9754 34.0654 38.0887 34.4297 38.26 34.7675C38.5525 35.3512 38.9312 35.8338 39.3275 36.2713C38.9613 36.6775 38.595 37.2912 37.3325 38.14C35.06 39.67 33.9975 39.5875 33.9975 39.5875C33.8995 39.2169 33.7894 38.8497 33.6675 38.4862C33.3913 37.7537 33.1525 37.015 32.4862 36.275C32.2788 36.0544 32.0229 35.8849 31.7388 35.78C31.3977 35.6821 31.035 35.6904 30.6987 35.8037C30.0075 36.0137 29.6538 36.6287 29.5788 37.1038C29.4075 38.0963 29.7862 39.0263 30.5087 39.7375C31.2162 40.3838 32.1175 40.6788 33.0625 40.7425C33.2413 41.4875 33.4038 42.2337 33.5925 42.9588L34.5563 46.9188C35.4182 50.4504 36.2986 53.9775 37.1975 57.5H33.14C31.6875 52.4087 28.6162 47.5975 25.3787 42.5262C21.505 36.4475 17.5 30.1625 17.5 24.4825C17.5 13.74 27.5925 5 40 5C52.4062 5 62.5 13.74 62.5 24.4825C62.5 30.165 58.4913 36.4513 54.6138 42.5312ZM47.2487 39.58C47.3225 39.3237 47.3975 39.0638 47.485 38.8138C47.7212 38.155 48.0225 37.4388 48.4325 37.01C48.53 36.9 48.63 36.8563 48.6813 36.8275C48.6813 36.8325 48.8037 36.8125 48.8812 36.8512C49.02 36.8862 49.1525 37.03 49.2038 37.3062C49.3037 37.8412 49.05 38.53 48.5913 38.9613C48.2688 39.2675 47.7712 39.4825 47.2487 39.58ZM32.7487 39.58C32.2262 39.4825 31.7288 39.2675 31.4088 38.96C30.9475 38.5287 30.6962 37.84 30.7962 37.305C30.8475 37.0275 30.9788 36.885 31.1188 36.85C31.1975 36.8125 31.3188 36.8312 31.3188 36.8263C31.3675 36.855 31.47 36.9 31.5625 37.0088C31.975 37.4388 32.275 38.1537 32.5125 38.8125C32.6 39.0637 32.6762 39.3237 32.7487 39.58ZM33.15 61.9463H31.9V66.4463H32.86V70.4475H33.82V74.4487H35.4275C36.1837 76.235 37.9338 77.5 40 77.5C42.065 77.5 43.8138 76.235 44.5725 74.4463H46.2313V70.42L46.3713 70.3687L47.19 70.0687V66.415L47.2713 66.3887L48.1475 66.1137V61.945H33.15V61.9463Z" fill="#0E204E"/>
</svg>
