<svg width="32" height="32" viewBox="0 0 32 32" fill="none" xmlns="http://www.w3.org/2000/svg">
<path d="M16.992 3.53918C16.7097 3.31675 16.3609 3.1958 16.0016 3.1958C15.6422 3.1958 15.2934 3.31675 15.0112 3.53918L9.71835 7.71518C8.43035 8.73118 8.58715 10.504 9.62555 11.4176L7.28316 13.3472C5.74236 14.6192 6.36635 16.9824 8.09915 17.4992L5.56156 19.8768C3.98396 21.3536 5.03035 24 7.19195 24H12.8V26.8C12.8 27.904 13.696 28.8 14.8 28.8H17.2C18.304 28.8 19.2 27.904 19.2 26.8V24H24.8064C26.968 24 28.0144 21.352 26.4352 19.8752L23.896 17.5008C25.6336 16.9872 26.2608 14.6208 24.7168 13.3488L22.3776 11.4192C23.416 10.5056 23.5728 8.73118 22.2864 7.71518L16.992 3.53918ZM17.6 24V26.8C17.6 26.9061 17.5578 27.0078 17.4828 27.0828C17.4078 27.1578 17.306 27.2 17.2 27.2H14.8C14.6939 27.2 14.5921 27.1578 14.5171 27.0828C14.4421 27.0078 14.4 26.9061 14.4 26.8V24H17.6ZM16.0016 4.79518L21.2944 8.97118C21.4234 9.07243 21.5181 9.21087 21.5658 9.36777C21.6135 9.52466 21.6119 9.69243 21.561 9.84834C21.5102 10.0043 21.4127 10.1408 21.2818 10.2395C21.1508 10.3381 20.9926 10.3942 20.8288 10.4C20.6663 10.4051 20.5093 10.4595 20.3786 10.5561C20.2479 10.6526 20.1497 10.7867 20.097 10.9404C20.0444 11.0942 20.0398 11.2603 20.0839 11.4167C20.1281 11.5731 20.2187 11.7124 20.344 11.816L23.6992 14.584C23.8258 14.6889 23.917 14.8303 23.9604 14.989C24.0038 15.1476 23.9972 15.3157 23.9416 15.4705C23.886 15.6253 23.784 15.7591 23.6496 15.8539C23.5152 15.9486 23.3548 15.9996 23.1904 16H21.9776C21.817 15.9999 21.6602 16.0481 21.5275 16.1383C21.3947 16.2285 21.2922 16.3566 21.2332 16.5058C21.1741 16.6551 21.1614 16.8187 21.1966 16.9753C21.2317 17.1319 21.3132 17.2743 21.4304 17.384L25.3408 21.0432C25.4556 21.1505 25.5356 21.29 25.5702 21.4434C25.6048 21.5967 25.5925 21.757 25.5349 21.9033C25.4773 22.0496 25.377 22.1752 25.2471 22.2638C25.1172 22.3523 24.9636 22.3998 24.8064 22.4H7.19195C7.03458 22.4001 6.8808 22.3529 6.75063 22.2644C6.62046 22.176 6.51992 22.0504 6.4621 21.904C6.40428 21.7577 6.39184 21.5973 6.42642 21.4437C6.46099 21.2902 6.54097 21.1506 6.65595 21.0432L10.56 17.384C10.6769 17.2745 10.7583 17.1324 10.7936 16.976C10.8289 16.8197 10.8164 16.6564 10.7578 16.5073C10.6991 16.3582 10.5971 16.2301 10.4648 16.1396C10.3326 16.0492 10.1762 16.0005 10.016 16H8.80956C8.64472 16 8.48388 15.9492 8.34905 15.8544C8.21422 15.7595 8.11197 15.6254 8.05628 15.4702C8.0006 15.3151 7.9942 15.1465 8.03796 14.9876C8.08172 14.8287 8.1735 14.6872 8.30076 14.5824L11.6576 11.816C11.7827 11.7125 11.8733 11.5734 11.9175 11.4171C11.9617 11.2608 11.9572 11.0948 11.9048 10.9412C11.8523 10.7875 11.7544 10.6534 11.6239 10.5567C11.4934 10.4601 11.3366 10.4054 11.1744 10.4C11.0105 10.3942 10.8523 10.3381 10.7214 10.2395C10.5904 10.1408 10.4929 10.0043 10.4421 9.84834C10.3913 9.69243 10.3896 9.52466 10.4373 9.36777C10.485 9.21087 10.5798 9.07243 10.7088 8.97118L16.0016 4.79518Z" fill="white"/>
</svg>
