<svg width="80" height="80" viewBox="0 0 80 80" fill="none" xmlns="http://www.w3.org/2000/svg">
<path d="M42.48 8.84806C41.7745 8.292 40.9023 7.98962 40.004 7.98962C39.1057 7.98962 38.2335 8.292 37.528 8.84806L24.296 19.2881C21.076 21.8281 21.468 26.2601 24.064 28.5441L18.208 33.3681C14.356 36.5481 15.916 42.4561 20.248 43.7481L13.904 49.6921C9.95999 53.3841 12.576 60.0001 17.98 60.0001H32V67.0001C32 69.7601 34.24 72.0001 37 72.0001H43C45.76 72.0001 48 69.7601 48 67.0001V60.0001H62.016C67.42 60.0001 70.036 53.3801 66.088 49.6881L59.74 43.7521C64.084 42.4681 65.652 36.5521 61.792 33.3721L55.944 28.5481C58.54 26.2641 58.932 21.8281 55.716 19.2881L42.48 8.84806ZM44 60.0001V67.0001C44 67.2653 43.8946 67.5196 43.7071 67.7072C43.5196 67.8947 43.2652 68.0001 43 68.0001H37C36.7348 68.0001 36.4804 67.8947 36.2929 67.7072C36.1054 67.5196 36 67.2653 36 67.0001V60.0001H44ZM40.004 11.9881L53.236 22.4281C53.5585 22.6812 53.7954 23.0273 53.9147 23.4195C54.0339 23.8118 54.0297 24.2312 53.9027 24.621C53.7757 25.0108 53.532 25.3521 53.2045 25.5988C52.8771 25.8455 52.4817 25.9855 52.072 26.0001C51.6659 26.0128 51.2734 26.149 50.9466 26.3903C50.6198 26.6317 50.3743 26.9669 50.2427 27.3512C50.1111 27.7356 50.0997 28.1509 50.21 28.5419C50.3202 28.9329 50.547 29.2811 50.86 29.5401L59.248 36.4601C59.5646 36.7224 59.7926 37.0759 59.9011 37.4725C60.0095 37.8691 59.9931 38.2894 59.8541 38.6764C59.7151 39.0633 59.4602 39.398 59.1241 39.6348C58.788 39.8717 58.3871 39.9992 57.976 40.0001H54.944C54.5427 39.9998 54.1507 40.1203 53.8188 40.3459C53.4869 40.5714 53.2305 40.8915 53.083 41.2647C52.9354 41.6379 52.9036 42.0468 52.9915 42.4383C53.0794 42.8298 53.2831 43.1858 53.576 43.4601L63.352 52.6081C63.6392 52.8765 63.8391 53.225 63.9256 53.6085C64.0122 53.992 63.9814 54.3926 63.8374 54.7583C63.6933 55.1241 63.4426 55.4381 63.1178 55.6595C62.793 55.881 62.4091 55.9996 62.016 56.0001H17.98C17.5865 56.0004 17.2021 55.8823 16.8767 55.6612C16.5513 55.4401 16.2999 55.1261 16.1554 54.7602C16.0108 54.3943 15.9797 53.9933 16.0661 53.6095C16.1526 53.2256 16.3525 52.8767 16.64 52.6081L26.4 43.4601C26.6924 43.1863 26.8959 42.831 26.9841 42.4402C27.0722 42.0495 27.041 41.6412 26.8945 41.2684C26.7479 40.8956 26.4928 40.5754 26.1622 40.3492C25.8315 40.1231 25.4406 40.0014 25.04 40.0001H22.024C21.6119 40.0002 21.2098 39.8731 20.8727 39.636C20.5357 39.399 20.28 39.0636 20.1408 38.6757C20.0016 38.2878 19.9856 37.8664 20.095 37.4691C20.2044 37.0718 20.4339 36.718 20.752 36.4561L29.144 29.5401C29.4568 29.2813 29.6835 28.9335 29.7939 28.5429C29.9043 28.1522 29.8932 27.7372 29.7621 27.353C29.631 26.9688 29.3861 26.6336 29.0599 26.392C28.7337 26.1503 28.3417 26.0136 27.936 26.0001C27.5263 25.9855 27.1309 25.8455 26.8035 25.5988C26.476 25.3521 26.2323 25.0108 26.1053 24.621C25.9782 24.2312 25.9741 23.8118 26.0933 23.4195C26.2126 23.0273 26.4495 22.6812 26.772 22.4281L40.004 11.9881Z" fill="#0E204E"/>
</svg>
