<svg width="80" height="80" viewBox="0 0 80 80" fill="none" xmlns="http://www.w3.org/2000/svg">
<path d="M63.3333 46.6667V20C63.3333 16.3334 60.3333 13.3334 56.6666 13.3334H9.99998C6.33331 13.3334 3.33331 16.3334 3.33331 20V46.6667C3.33331 50.3334 6.33331 53.3334 9.99998 53.3334H56.6666C60.3333 53.3334 63.3333 50.3334 63.3333 46.6667ZM56.6666 46.6667H9.99998V20H56.6666V46.6667ZM33.3333 23.3334C27.8 23.3334 23.3333 27.8 23.3333 33.3334C23.3333 38.8667 27.8 43.3334 33.3333 43.3334C38.8666 43.3334 43.3333 38.8667 43.3333 33.3334C43.3333 27.8 38.8666 23.3334 33.3333 23.3334ZM76.6666 23.3334V60C76.6666 63.6667 73.6666 66.6667 70 66.6667H13.3333V60H70V23.3334H76.6666Z" fill="#0E204E"/>
</svg>
