<svg width="80" height="80" viewBox="0 0 80 80" fill="none" xmlns="http://www.w3.org/2000/svg">
<path d="M40 68C44.4183 68 48 64.4183 48 60C48 55.5817 44.4183 52 40 52C35.5817 52 32 55.5817 32 60C32 64.4183 35.5817 68 40 68Z" fill="#0E204E"/>
<path d="M4 29.6C8.50441 24.0668 14.0441 19.6354 20.251 16.6C26.4579 13.5646 33.19 11.9948 40 11.9948C46.81 11.9948 53.5421 13.5646 59.749 16.6C65.9559 19.6354 71.4956 24.0668 76 29.6L70 35.2C66.2463 30.4755 61.6299 26.6917 56.4575 24.1C51.2851 21.5082 45.675 20.1678 40 20.1678C34.325 20.1678 28.7149 21.5082 23.5425 24.1C18.3701 26.6917 13.7537 30.4755 10 35.2L4 29.6ZM18.8 42.4C21.4284 39.1514 24.7051 36.5404 28.4014 34.7494C32.0976 32.9583 36.1242 32.0304 40.2 32.0304C44.2758 32.0304 48.3024 32.9583 51.9986 34.7494C55.6949 36.5404 58.9716 39.1514 61.6 42.4L56 48C54.126 45.524 51.7513 43.5256 49.0512 42.1525C46.3512 40.7794 43.3947 40.0665 40.4 40.0665C37.4053 40.0665 34.4488 40.7794 31.7488 42.1525C29.0487 43.5256 26.674 45.524 24.8 48L18.8 42.4Z" fill="#0E204E"/>
</svg>
